<svg width="56" height="56" viewBox="0 0 56 56" fill="none" xmlns="http://www.w3.org/2000/svg">
<g filter="url(#filter0_d_1_1192)">
<circle cx="27.5649" cy="24.0305" r="23.5649" fill="#F6F6F6"/>
<path d="M34.562 26.7443C34.7093 26.4334 34.8373 26.1166 34.9468 25.7947H34.9187C36.8369 20.1564 32.8029 14.2305 26.8475 13.9419C26.8474 13.9416 26.8473 13.9413 26.8472 13.941C21.723 13.7046 17.4657 17.8131 17.4657 22.9077C17.4657 27.8534 21.4796 31.8771 26.4167 31.8843C27.7558 31.8825 29.0394 31.5938 30.2363 31.0253C34.9083 31.9502 34.544 31.8845 34.6513 31.8845C35.1368 31.8845 35.4995 31.4389 35.4047 30.9642L34.562 26.7443Z" fill="black"/>
</g>
<defs>
<filter id="filter0_d_1_1192" x="0" y="0.465637" width="55.1298" height="55.1298" filterUnits="userSpaceOnUse" color-interpolation-filters="sRGB">
<feFlood flood-opacity="0" result="BackgroundImageFix"/>
<feColorMatrix in="SourceAlpha" type="matrix" values="0 0 0 0 0 0 0 0 0 0 0 0 0 0 0 0 0 0 127 0" result="hardAlpha"/>
<feOffset dy="4"/>
<feGaussianBlur stdDeviation="2"/>
<feComposite in2="hardAlpha" operator="out"/>
<feColorMatrix type="matrix" values="0 0 0 0 0 0 0 0 0 0 0 0 0 0 0 0 0 0 0.25 0"/>
<feBlend mode="normal" in2="BackgroundImageFix" result="effect1_dropShadow_1_1192"/>
<feBlend mode="normal" in="SourceGraphic" in2="effect1_dropShadow_1_1192" result="shape"/>
</filter>
</defs>
</svg>
